HIERARCHY
ROOT Hips
{
	OFFSET 0.000000 0.000000 0.000000
	CHANNELS 6 Xposition Yposition Zposition Xrotation Yrotation Zrotation
	JOINT LeftUpLeg_virtual
	{
		OFFSET 0.000000 0.000000 0.000000
		CHANNELS 3 Xrotation Yrotation Zrotation
		JOINT LeftUpLeg
		{
			OFFSET 11.394100 -6.187798 -0.413800
			CHANNELS 3 Xrotation Yrotation Zrotation
			JOINT LeftLeg
			{
				OFFSET 0.430247 -32.302673 3.732800
				CHANNELS 3 Xrotation Yrotation Zrotation
				JOINT LeftFoot
				{
					OFFSET -0.430247 -48.264931 -6.423300
					CHANNELS 3 Xrotation Yrotation Zrotation
					JOINT LeftToeBase
					{
						OFFSET 4.230900 -16.068199 23.438400
						CHANNELS 3 Xrotation Yrotation Zrotation
						JOINT LeftToe_End
						{
							OFFSET 4.510700 0.695400 19.974600
							CHANNELS 3 Xrotation Yrotation Zrotation
							End Site
							{
								OFFSET 0 0 0
							}
						}
					}
				}
			}
		}
	}
	JOINT RightUpLeg_virtual
	{
		OFFSET 0.000000 0.000000 0.000000
		CHANNELS 3 Xrotation Yrotation Zrotation
		JOINT RightUpLeg
		{
			OFFSET -11.333700 -6.187798 -0.413800
			CHANNELS 3 Xrotation Yrotation Zrotation
			JOINT RightLeg
			{
				OFFSET -0.430392 -32.302628 3.733000
				CHANNELS 3 Xrotation Yrotation Zrotation
				JOINT RightFoot
				{
					OFFSET 0.430392 -48.264973 -6.423500
					CHANNELS 3 Xrotation Yrotation Zrotation
					JOINT RightToeBase
					{
						OFFSET -4.230900 -16.068199 23.438400
						CHANNELS 3 Xrotation Yrotation Zrotation
						JOINT RightToe_End
						{
							OFFSET -4.510700 0.695400 19.974600
							CHANNELS 3 Xrotation Yrotation Zrotation
							End Site
							{
								OFFSET 0 0 0
							}
						}
					}
				}
			}
		}
	}
	JOINT Spine_virtual
	{
		OFFSET 0.000000 0.000000 0.000000
		CHANNELS 3 Xrotation Yrotation Zrotation
		JOINT Spine
		{
			OFFSET -0.002400 12.777504 0.315300
			CHANNELS 3 Xrotation Yrotation Zrotation
			JOINT Spine1
			{
				OFFSET -0.002067 5.816869 0.032633
				CHANNELS 3 Xrotation Yrotation Zrotation
				JOINT Spine1_split
				{
					OFFSET -0.002067 5.816869 0.032633
					CHANNELS 3 Xrotation Yrotation Zrotation
					JOINT Spine2
					{
						OFFSET -0.002067 5.816869 0.032633
						CHANNELS 3 Xrotation Yrotation Zrotation
						JOINT Neck_virtual
						{
							OFFSET 0.000000 0.000000 0.000000
							CHANNELS 3 Xrotation Yrotation Zrotation
							JOINT Neck
							{
								OFFSET -0.003700 21.199493 -0.826900
								CHANNELS 3 Xrotation Yrotation Zrotation
								JOINT Head
								{
									OFFSET 0.000000 20.442200 4.834800
									CHANNELS 3 Xrotation Yrotation Zrotation
									JOINT HeadTop_End
									{
										OFFSET 0.000000 34.668396 4.968400
										CHANNELS 3 Xrotation Yrotation Zrotation
										End Site
										{
											OFFSET 0 0 0
										}
									}
								}
							}
						}
						JOINT LeftShoulder_virtual
						{
							OFFSET 0.000000 0.000000 0.000000
							CHANNELS 3 Xrotation Yrotation Zrotation
							JOINT LeftShoulder
							{
								OFFSET 3.288150 8.794197 -1.372250
								CHANNELS 3 Xrotation Yrotation Zrotation
								JOINT LeftShoulder_split
								{
									OFFSET 3.288150 8.794197 -1.372250
									CHANNELS 3 Xrotation Yrotation Zrotation
									JOINT LeftArm
									{
										OFFSET 11.953299 -2.279007 -0.146200
										CHANNELS 3 Xrotation Yrotation Zrotation
										JOINT LeftForeArm
										{
											OFFSET 18.448900 0.000000 0.000000
											CHANNELS 3 Xrotation Yrotation Zrotation
											JOINT LeftHand
											{
												OFFSET 29.527798 0.000000 0.000000
												CHANNELS 3 Xrotation Yrotation Zrotation
												End Site
												{
													OFFSET 0 0 0
												}
											}
										}
									}
								}
							}
						}
						JOINT RightShoulder_virtual
						{
							OFFSET 0.000000 0.000000 0.000000
							CHANNELS 3 Xrotation Yrotation Zrotation
							JOINT RightShoulder
							{
								OFFSET -3.249400 8.794197 -1.372250
								CHANNELS 3 Xrotation Yrotation Zrotation
								JOINT RightShoulder_split
								{
									OFFSET -3.249400 8.794197 -1.372250
									CHANNELS 3 Xrotation Yrotation Zrotation
									JOINT RightArm
									{
										OFFSET -11.953299 -2.279007 -0.146200
										CHANNELS 3 Xrotation Yrotation Zrotation
										JOINT RightForeArm
										{
											OFFSET -18.448900 0.000000 0.000000
											CHANNELS 3 Xrotation Yrotation Zrotation
											JOINT RightHand
											{
												OFFSET -29.527802 0.000000 0.000000
												CHANNELS 3 Xrotation Yrotation Zrotation
												End Site
												{
													OFFSET 0 0 0
												}
											}
										}
									}
								}
							}
						}
					}
				}
			}
		}
	}
}
MOTION
Frames: 9
Frame Time: 0.03333333
-0.417848 85.632553 0.299599 0.000000 0.000000 0.000000 11.705711 -49.521696 11.404208 -68.323448 24.999037 43.261885 44.538035 -19.585151 3.202475 7.537213 0.565857 -11.518721 -0.806406 -6.108574 0.921732 0.000000 0.000000 0.000000 11.705711 -49.521696 11.404208 -38.056544 1.958801 -24.202594 52.398800 1.036555 -6.829720 -21.042474 -1.757823 25.309594 0.528348 2.970014 1.471356 0.000000 0.000000 0.000000 11.705711 -49.521696 11.404208 10.978914 2.848745 -2.161250 6.100714 5.566530 -4.284684 0.000000 0.000000 0.000000 0.000000 0.000000 0.000000 -5.786911 6.328147 -3.046188 2.318655 9.363418 -0.265731 -4.146881 23.161863 -3.522968 0.000000 0.000000 0.000000 -5.786911 6.328147 -3.046188 -1.882848 -16.244761 -2.883351 0.000000 0.000000 0.000000 -10.641501 2.224945 -45.488367 -22.862375 -25.786251 -15.871720 0.000000 0.000000 0.000000 -5.786911 6.328147 -3.046188 -5.080961 24.428093 1.493068 0.000000 0.000000 0.000000 6.647360 -34.818549 57.612885 -21.031971 44.833795 19.961670 0.000000 0.000000 0.000000 
-0.494115 85.613304 0.280426 0.000000 0.000000 0.000000 11.543546 -49.802171 11.333477 -68.092164 25.000453 43.351224 44.596911 -19.413862 3.325613 7.438318 0.580683 -11.708799 -0.874640 -6.218652 0.996720 0.000000 0.000000 0.000000 11.543546 -49.802171 11.333477 -38.007612 2.121709 -24.107223 52.506222 1.079006 -6.823428 -21.031034 -1.699300 25.251780 0.552213 2.999081 1.361363 0.000000 0.000000 0.000000 11.543546 -49.802171 11.333477 10.996777 2.942428 -2.198430 6.210110 5.609805 -4.231203 0.000000 0.000000 0.000000 0.000000 0.000000 0.000000 -5.697419 6.318253 -3.012860 2.193453 9.464194 -0.640304 -4.095896 23.049773 -3.380866 0.000000 0.000000 0.000000 -5.697419 6.318253 -3.012860 -1.908074 -16.258750 -3.020666 0.000000 0.000000 0.000000 -10.687432 2.247396 -45.360031 -22.769653 -25.731447 -15.803251 0.000000 0.000000 0.000000 -5.697419 6.318253 -3.012860 -5.072079 24.344580 1.612734 0.000000 0.000000 0.000000 6.672736 -34.749636 56.881703 -18.584969 45.084016 18.881595 0.000000 0.000000 0.000000 
-0.564450 85.598152 0.196632 0.000000 0.000000 0.000000 11.222382 -50.086382 11.269444 -67.634398 25.135827 43.227769 44.534363 -19.171416 3.557437 7.380671 0.535075 -11.988091 -0.932927 -6.277337 1.062684 0.000000 0.000000 0.000000 11.222382 -50.086382 11.269444 -37.962512 2.333710 -24.132433 52.702682 1.220380 -6.799245 -20.982696 -1.619967 25.122663 0.625099 2.940824 1.336921 0.000000 0.000000 0.000000 11.222382 -50.086382 11.269444 11.023305 3.001473 -2.252687 6.331291 5.599936 -4.228948 0.000000 0.000000 0.000000 0.000000 0.000000 0.000000 -5.592462 6.271875 -3.037226 2.123664 9.689427 -1.179595 -4.049715 22.935628 -3.100424 0.000000 0.000000 0.000000 -5.592462 6.271875 -3.037226 -1.896886 -15.889942 -3.087225 0.000000 0.000000 0.000000 -10.739184 2.060724 -45.364228 -22.581792 -25.698828 -15.654609 0.000000 0.000000 0.000000 -5.592462 6.271875 -3.037226 -5.134576 24.848315 2.120641 0.000000 0.000000 0.000000 6.274987 -34.716171 53.957665 -9.547843 44.108423 14.324998 0.000000 0.000000 0.000000 
-0.658397 85.592255 -0.009533 0.000000 0.000000 0.000000 10.882020 -50.772764 11.073657 -67.136873 25.193402 43.439061 44.397828 -18.816749 3.859932 7.350340 0.469721 -12.447450 -0.999504 -6.279451 1.138817 0.000000 0.000000 0.000000 10.882020 -50.772764 11.073657 -37.856214 2.991280 -23.503847 52.921296 1.043696 -6.862819 -20.844313 -1.569745 25.020130 0.457959 2.755695 1.134609 0.000000 0.000000 0.000000 10.882020 -50.772764 11.073657 11.046936 3.082890 -2.379862 6.447404 5.652644 -4.384809 0.000000 0.000000 0.000000 0.000000 0.000000 0.000000 -5.490719 6.324089 -3.199997 2.057287 9.915248 -1.370660 -3.785027 22.911683 -2.839734 0.000000 0.000000 0.000000 -5.490719 6.324089 -3.199997 -1.892128 -15.676850 -3.056776 0.000000 0.000000 0.000000 -10.684151 2.325819 -45.124973 -22.465281 -25.817517 -15.514952 0.000000 0.000000 0.000000 -5.490719 6.324089 -3.199997 -4.992325 24.477598 2.436425 0.000000 0.000000 0.000000 5.492927 -32.730267 49.929882 3.493386 38.566305 8.525791 0.000000 0.000000 0.000000 
-0.768602 85.632576 -0.269855 0.000000 0.000000 0.000000 10.474853 -51.457645 10.806104 -66.437906 25.252890 43.415524 44.111018 -18.273603 4.359267 7.341324 0.390460 -13.061029 -0.979550 -6.264302 1.216305 0.000000 0.000000 0.000000 10.474853 -51.457645 10.806104 -37.567379 3.819169 -22.614598 53.077393 0.490102 -7.024014 -20.791275 -1.611255 25.045284 0.412302 2.610091 1.139634 0.000000 0.000000 0.000000 10.474853 -51.457645 10.806104 11.119410 3.136035 -2.639483 6.667154 5.659037 -4.816345 0.000000 0.000000 0.000000 0.000000 0.000000 0.000000 -5.279793 6.392591 -3.639197 1.352311 9.878830 -0.630885 -3.073676 22.961117 -2.981166 0.000000 0.000000 0.000000 -5.279793 6.392591 -3.639197 -1.815692 -15.200627 -2.652852 0.000000 0.000000 0.000000 -10.878627 2.223973 -44.702526 -22.305304 -25.873469 -15.300204 0.000000 0.000000 0.000000 -5.279793 6.392591 -3.639197 -4.959386 25.346130 3.115289 0.000000 0.000000 0.000000 4.203187 -31.045710 46.983604 14.417339 29.637711 6.464265 0.000000 0.000000 0.000000 
-0.926274 85.749443 -0.658863 0.000000 0.000000 0.000000 10.065528 -51.524095 10.668948 -65.553922 25.552653 42.548759 43.205649 -17.177145 5.150434 7.870097 0.205754 -13.705248 -1.056657 -7.556195 1.310472 0.000000 0.000000 0.000000 10.065528 -51.524095 10.668948 -37.171532 4.466998 -21.906257 53.185334 -0.399033 -7.241234 -20.793925 -1.715349 25.127091 0.268785 2.442445 1.275310 0.000000 0.000000 0.000000 10.065528 -51.524095 10.668948 11.256689 3.216173 -2.923224 7.011809 5.730177 -5.302697 0.000000 0.000000 0.000000 0.000000 0.000000 0.000000 -4.942861 6.540221 -4.115484 0.060294 9.502331 0.223876 -2.439621 22.726415 -3.346738 0.000000 0.000000 0.000000 -4.942861 6.540221 -4.115484 -1.725481 -14.789219 -2.070556 0.000000 0.000000 0.000000 -11.687821 1.123614 -44.574180 -21.831641 -25.555248 -14.862516 0.000000 0.000000 0.000000 -4.942861 6.540221 -4.115484 -4.924331 26.129162 3.885938 0.000000 0.000000 0.000000 3.544179 -28.981859 44.863117 24.709078 21.116561 6.499724 0.000000 0.000000 0.000000 
-1.203519 85.893532 -1.215515 0.000000 0.000000 0.000000 9.383234 -50.154622 10.221724 -64.890076 25.796540 41.470706 42.026806 -18.541658 5.272742 8.290327 0.276105 -13.948551 -1.291025 -5.978267 1.354470 0.000000 0.000000 0.000000 9.383234 -50.154622 10.221724 -36.395039 4.325305 -21.580867 53.336490 -1.891161 -7.388304 -21.074547 -1.891868 25.279345 0.122817 2.228715 1.390048 0.000000 0.000000 0.000000 9.383234 -50.154622 10.221724 11.449557 3.252775 -3.043454 7.443100 5.725131 -5.468205 0.000000 0.000000 0.000000 0.000000 0.000000 0.000000 -4.519283 6.551280 -4.290409 -1.073114 9.034038 0.087345 -2.667254 22.010174 -3.307463 0.000000 0.000000 0.000000 -4.519283 6.551280 -4.290409 -1.680286 -14.545521 -1.680232 0.000000 0.000000 0.000000 -12.967744 -0.805160 -45.079283 -21.252118 -25.339783 -14.438287 0.000000 0.000000 0.000000 -4.519283 6.551280 -4.290409 -4.600733 26.487989 4.252997 0.000000 0.000000 0.000000 5.638121 -26.646455 42.538425 36.904612 19.526018 4.800608 0.000000 0.000000 0.000000 
-1.550541 86.122482 -2.044712 0.000000 0.000000 0.000000 8.912187 -47.247164 9.612380 -65.113641 26.362319 40.456600 39.745725 -20.913715 4.661661 10.068718 0.215144 -13.385883 -0.823181 -5.532581 1.031373 0.000000 0.000000 0.000000 8.912187 -47.247164 9.612380 -35.460710 3.383584 -21.211651 53.313229 -4.260292 -7.442845 -21.407053 -2.139031 25.516538 0.011308 1.980162 1.336063 0.000000 0.000000 0.000000 8.912187 -47.247164 9.612380 11.538614 3.185041 -3.038652 7.643070 5.536290 -5.367350 0.000000 0.000000 0.000000 0.000000 0.000000 0.000000 -4.324219 6.331526 -4.240049 -0.982424 8.166120 -0.120175 -3.373952 21.023915 -3.310531 0.000000 0.000000 0.000000 -4.324219 6.331526 -4.240049 -1.658331 -15.003931 -1.259020 0.000000 0.000000 0.000000 -13.749389 -2.192523 -45.850305 -20.978870 -25.981889 -14.522201 0.000000 0.000000 0.000000 -4.324219 6.331526 -4.240049 -3.885463 25.338836 3.877562 0.000000 0.000000 0.000000 14.135932 -19.995379 40.367709 35.868626 24.857720 1.434684 0.000000 0.000000 0.000000 
-1.917062 86.424591 -2.972904 0.000000 0.000000 0.000000 8.353275 -43.548723 8.792304 -65.537571 27.424079 39.800291 36.456340 -24.316122 3.037422 12.643582 0.221869 -12.260823 -0.283360 -5.075255 0.705449 0.000000 0.000000 0.000000 8.353275 -43.548723 8.792304 -34.211451 1.984024 -20.844658 53.056411 -6.960154 -7.394301 -21.720181 -2.421361 25.779960 -0.158231 1.551331 1.353332 0.000000 0.000000 0.000000 8.353275 -43.548723 8.792304 11.645122 2.928273 -3.064272 7.868368 4.985271 -5.311830 0.000000 0.000000 0.000000 0.000000 0.000000 0.000000 -4.093974 5.770552 -4.307150 -0.341419 7.167735 0.286246 -4.117703 20.204319 -3.368745 0.000000 0.000000 0.000000 -4.093974 5.770552 -4.307150 -1.563348 -15.115600 -0.352953 0.000000 0.000000 0.000000 -14.282824 -3.270402 -46.722411 -20.763413 -27.080085 -14.832147 0.000000 0.000000 0.000000 -4.093974 5.770552 -4.307150 -2.954742 22.532203 3.213190 0.000000 0.000000 0.000000 20.562455 -10.104766 36.436802 31.717472 26.796314 -0.204023 0.000000 0.000000 0.000000 
